<svg width="30" height="40" viewBox="0 0 64 64" fill="none" xmlns="http://www.w3.org/2000/svg">
<path d="M42.2743 54.9722H12.5085L31.5569 35.9237L39 41.6514L46.443 35.9206L51.5637 41.0412C52.5867 40.4994 53.6611 40.0606 54.771 39.7315L48.9954 33.956L67.75 19.5139V40.9806C68.8853 41.5451 69.9563 42.2305 70.9444 43.025V18.2361C70.9411 16.9663 70.4351 15.7495 69.5373 14.8516C68.6394 13.9537 67.4226 13.4478 66.1528 13.4444H11.8472C10.5774 13.4478 9.3606 13.9537 8.46271 14.8516C7.56483 15.7495 7.05891 16.9663 7.05554 18.2361V53.375C7.05554 54.6458 7.56038 55.8646 8.45899 56.7632C9.3576 57.6618 10.5764 58.1667 11.8472 58.1667H42.2743C42.2264 57.6396 42.1944 57.1093 42.1944 56.5694C42.1944 56.0296 42.2264 55.4993 42.2743 54.9722ZM10.25 52.7137V19.5171L29.0046 33.956L10.25 52.7137ZM66.1528 16.6389C66.1815 16.6389 66.2039 16.6549 66.2326 16.6549L39 37.6264L11.7673 16.6549C11.7961 16.6549 11.8185 16.6389 11.8472 16.6389H66.1528ZM59.7639 42.1944C55.9527 42.1987 52.2988 43.7145 49.6039 46.4095C46.909 49.1044 45.3931 52.7583 45.3889 56.5694C45.4117 57.1045 45.465 57.6377 45.5486 58.1667C45.9333 61.6714 47.5955 64.9115 50.2176 67.2685C52.8397 69.6255 56.2381 70.9341 59.7639 70.9444H61.3611V67.75H59.7639C57.0822 67.7425 54.4928 66.77 52.4691 65.0103C50.4455 63.2506 49.1228 60.8213 48.743 58.1667C48.6511 57.6388 48.5977 57.105 48.5833 56.5694C48.5819 54.3681 49.2306 52.2154 50.4482 50.3815C51.6657 48.5476 53.3979 47.1141 55.4272 46.261C57.4564 45.408 59.6925 45.1733 61.8547 45.5864C64.0169 45.9996 66.0089 47.0422 67.5807 48.5833H64.5555V50.2221C63.1811 49.1655 61.4975 48.5897 59.7639 48.5833C58.4548 48.5796 57.165 48.8977 56.0078 49.5097C54.8506 50.1217 53.8616 51.0087 53.1278 52.0927C52.394 53.1768 51.9379 54.4245 51.7997 55.7263C51.6615 57.028 51.8454 58.3437 52.3352 59.5577C52.8251 60.7716 53.6058 61.8465 54.6087 62.6878C55.6116 63.5291 56.8059 64.111 58.0865 64.3822C59.3671 64.6534 60.6948 64.6057 61.9526 64.2432C63.2105 63.8807 64.3599 63.2146 65.2998 62.3035C65.8501 63.1852 66.6726 63.8637 67.6429 64.2362C68.6132 64.6087 69.6784 64.6549 70.6773 64.3679C71.6763 64.0809 72.5545 63.4763 73.1791 62.6455C73.8036 61.8148 74.1406 60.8032 74.1389 59.7639V56.5694C74.0933 52.7711 72.5641 49.1412 69.8781 46.4552C67.1921 43.7692 63.5622 42.24 59.7639 42.1944ZM59.7639 61.3611C58.7761 61.3579 57.8136 61.0492 57.0083 60.4773C56.203 59.9053 55.5944 59.0982 55.2661 58.1667C55.0769 57.6551 54.9775 57.1148 54.9722 56.5694C54.9722 55.2986 55.477 54.0798 56.3757 53.1812C57.2743 52.2826 58.493 51.7778 59.7639 51.7778C61.0347 51.7778 62.2535 52.2826 63.1521 53.1812C64.0507 54.0798 64.5555 55.2986 64.5555 56.5694C64.5502 57.1148 64.4508 57.6551 64.2617 58.1667C63.9333 59.0982 63.3247 59.9053 62.5194 60.4773C61.7141 61.0492 60.7516 61.3579 59.7639 61.3611ZM70.9444 59.7639C70.9444 60.1875 70.7761 60.5938 70.4766 60.8933C70.1771 61.1928 69.7708 61.3611 69.3472 61.3611C68.9236 61.3611 68.5173 61.1928 68.2178 60.8933C67.9183 60.5938 67.75 60.1875 67.75 59.7639V48.7526C69.757 50.8657 70.8971 53.6555 70.9444 56.5694V59.7639Z" fill="#009688" stroke="#009688" stroke-width="0.000766667"/>
<path d="M0.666626 0.666672H77.3333V77.3333H0.666626V0.666672Z" stroke="#009688" stroke-width="0.000766667"/>
</svg>
