<svg width="54" height="56" viewBox="0 0 54 56" fill="none" xmlns="http://www.w3.org/2000/svg">
<path d="M7.35402 7L46.8249 49M22.3624 23.1318C21.2163 24.3917 20.511 26.1081 20.511 28C20.511 31.8661 23.4564 35 27.0895 35C28.8931 35 30.5272 34.2277 31.7155 32.977M15.0289 15.51C10.8641 18.4341 7.69178 22.8292 6.16553 28C8.95974 37.4666 17.2713 44.3333 27.0899 44.3333C31.4512 44.3333 35.5152 42.9786 38.9303 40.6429M24.8966 11.7819C25.6181 11.7057 26.3498 11.6667 27.0899 11.6667C36.9087 11.6667 45.2202 18.5335 48.0143 28C47.3988 30.086 46.5151 32.0455 45.4066 33.8333" stroke="#009688" stroke-width="5.33333" stroke-linecap="round" stroke-linejoin="round"/>
</svg>
