<svg width="60" height="64" viewBox="0 0 60 64" fill="none" xmlns="http://www.w3.org/2000/svg">
<path opacity="0.5" d="M54.7313 32C54.7313 46.7275 43.7079 58.6667 30.11 58.6667C16.5121 58.6667 5.48877 46.7275 5.48877 32C5.48877 17.2724 16.5121 5.33334 30.11 5.33334C43.7079 5.33334 54.7313 17.2724 54.7313 32Z" fill="#009688" stroke="#00796B" stroke-width="1.152"/>
<path d="M30.1103 47.3333C31.1301 47.3333 31.9569 46.4379 31.9569 45.3333V29.3333C31.9569 28.2288 31.1301 27.3333 30.1103 27.3333C29.0905 27.3333 28.2637 28.2288 28.2637 29.3333V45.3333C28.2637 46.4379 29.0905 47.3333 30.1103 47.3333Z" fill="#009688" stroke="#00796B" stroke-width="1.152"/>
<path d="M30.1101 18.6667C31.4699 18.6667 32.5722 19.8606 32.5722 21.3334C32.5722 22.8061 31.4699 24 30.1101 24C28.7502 24 27.6479 22.8061 27.6479 21.3334C27.6479 19.8606 28.7502 18.6667 30.1101 18.6667Z" fill="#009688" stroke="#00796B" stroke-width="1.152"/>
</svg>
