<svg width="64" height="64" viewBox="0 0 64 64" fill="none" xmlns="http://www.w3.org/2000/svg">
<path d="M34.6666 10.6905C34.6671 9.21773 33.4738 8.02335 32.001 8.02277C30.5282 8.02221 29.3338 9.21565 29.3332 10.6884L29.3247 32.0309C29.3242 33.5037 30.5178 34.6981 31.9906 34.6987C33.4631 34.6992 34.6575 33.5059 34.658 32.0331L34.6666 10.6905Z" fill="#009688"/>
<path d="M10.6666 34.6446C10.6666 28.7536 13.0544 23.4203 16.9148 19.5597L20.6861 23.3309C17.7908 26.2264 16 30.2264 16 34.6446C16 43.4811 23.1634 50.6445 32 50.6445C40.8365 50.6445 48 43.4811 48 34.6446C48 30.2262 46.209 26.2262 43.3136 23.3308L47.0848 19.5595C50.9456 23.4201 53.3333 28.7534 53.3333 34.6446C53.3333 46.4267 43.7821 55.9779 32 55.9779C20.2179 55.9779 10.6666 46.4267 10.6666 34.6446Z" fill="#009688"/>
</svg>
