<svg width="64" height="64" viewBox="0 0 64 64" fill="none" xmlns="http://www.w3.org/2000/svg">
<g clip-path="url(#clip0_28_825)">
<path d="M64 0H0V64H64V0Z" stroke="#009688" stroke-width="0"/>
<path d="M52 24H46.6666V17.3333C46.6666 13.4435 45.1214 9.71296 42.3709 6.96242C39.6203 4.21189 35.8898 2.66666 32 2.66666H29.3333C25.4435 2.66666 21.7129 4.21189 18.9624 6.96242C16.2119 9.71296 14.6666 13.4435 14.6666 17.3333V24H9.33329C8.62605 24 7.94777 24.2809 7.44767 24.781C6.94758 25.2811 6.66663 25.9594 6.66663 26.6667V58.6667C6.66663 59.3739 6.94758 60.0522 7.44767 60.5523C7.94777 61.0524 8.62605 61.3333 9.33329 61.3333H52C52.7072 61.3333 53.3855 61.0524 53.8856 60.5523C54.3857 60.0522 54.6666 59.3739 54.6666 58.6667V26.6667C54.6666 25.9594 54.3857 25.2811 53.8856 24.781C53.3855 24.2809 52.7072 24 52 24ZM20 17.3333C20 14.858 20.9833 12.484 22.7336 10.7337C24.484 8.98332 26.8579 7.99999 29.3333 7.99999H32C34.4753 7.99999 36.8493 8.98332 38.5996 10.7337C40.35 12.484 41.3333 14.858 41.3333 17.3333V24H20V17.3333ZM49.3333 56H12V29.3333H49.3333V56Z" fill="#009688" stroke="#009688" stroke-width="0.00064"/>
<path d="M20 46.6667C22.2091 46.6667 24 44.8758 24 42.6667C24 40.4575 22.2091 38.6667 20 38.6667C17.7909 38.6667 16 40.4575 16 42.6667C16 44.8758 17.7909 46.6667 20 46.6667Z" fill="#009688" stroke="#009688" stroke-width="0.00064"/>
<path d="M30.6666 46.6667C32.8758 46.6667 34.6666 44.8758 34.6666 42.6667C34.6666 40.4575 32.8758 38.6667 30.6666 38.6667C28.4575 38.6667 26.6666 40.4575 26.6666 42.6667C26.6666 44.8758 28.4575 46.6667 30.6666 46.6667Z" fill="#009688" stroke="#009688" stroke-width="0.00064"/>
<path d="M41.3333 46.6667C43.5424 46.6667 45.3333 44.8758 45.3333 42.6667C45.3333 40.4575 43.5424 38.6667 41.3333 38.6667C39.1241 38.6667 37.3333 40.4575 37.3333 42.6667C37.3333 44.8758 39.1241 46.6667 41.3333 46.6667Z" fill="#009688" stroke="#009688" stroke-width="0.00064"/>
</g>
<defs>
<clipPath id="clip0_28_825">
<rect width="64" height="64" fill="white"/>
</clipPath>
</defs>
</svg>
